<?xml version="1.0" encoding="UTF-8"?>
<svg version="1.1" xmlns="http://www.w3.org/2000/svg" width="610" height="595">
<path d="M0 0 C1.55164511 -0.00115627 3.10328995 -0.00274715 4.65493423 -0.00472724 C8.86090451 -0.00885104 13.06685172 -0.00686182 17.27282202 -0.00374103 C21.83111888 -0.00145849 26.38941203 -0.00498058 30.94770813 -0.00772095 C39.85376028 -0.012147 48.75980397 -0.01121641 57.66585644 -0.00830831 C64.90786183 -0.00604221 72.14986486 -0.00574696 79.3918705 -0.00683212 C80.4258613 -0.00698536 81.4598521 -0.00713859 82.52517596 -0.00729647 C84.62621738 -0.00761622 86.7272588 -0.00794043 88.82830022 -0.00826906 C108.48779637 -0.01111447 128.14728785 -0.00785135 147.80678324 -0.00246869 C164.65112382 0.00200049 181.49545751 0.00122065 198.33979797 -0.00338745 C217.93762841 -0.00874638 237.53545476 -0.01084195 257.13328582 -0.00777519 C259.22531974 -0.00745666 261.31735367 -0.00714229 263.40938759 -0.00683212 C264.43850848 -0.00667785 265.46762937 -0.00652357 266.52793574 -0.00636462 C273.75717756 -0.00550357 280.98641677 -0.00695342 288.21565819 -0.00931168 C297.03120676 -0.01212443 305.84674643 -0.01134027 314.66229399 -0.00603093 C319.15429841 -0.00341411 323.64628803 -0.00235445 328.13829231 -0.00568008 C332.25926117 -0.00868476 336.38020166 -0.00698161 340.50116799 -0.00170253 C341.98271717 -0.00059603 343.4642688 -0.00112967 344.94581636 -0.00357832 C354.535897 -0.01819845 364.15785796 0.07118285 373.6999054 1.12698364 C374.0299054 1.45698364 374.3599054 1.78698364 374.6999054 2.12698364 C376.52738603 2.45331947 378.36245336 2.73750191 380.1999054 3.00198364 C385.62846654 3.86591143 390.55654579 5.22992596 395.6999054 7.12698364 C396.8755304 7.51885864 398.0511554 7.91073364 399.2624054 8.31448364 C400.0667804 8.58260864 400.8711554 8.85073364 401.6999054 9.12698364 C401.6999054 9.78698364 401.6999054 10.44698364 401.6999054 11.12698364 C402.6486554 11.16823364 403.5974054 11.20948364 404.5749054 11.25198364 C410.00553994 12.01995216 414.18292028 15.20464179 418.6999054 18.12698364 C419.49783508 18.60135864 420.29576477 19.07573364 421.11787415 19.56448364 C421.84619446 19.99760864 422.57451477 20.43073364 423.3249054 20.87698364 C423.97717102 21.26370239 424.62943665 21.65042114 425.3014679 22.04885864 C425.76295227 22.40463989 426.22443665 22.76042114 426.6999054 23.12698364 C426.6999054 23.78698364 426.6999054 24.44698364 426.6999054 25.12698364 C427.2980304 25.25073364 427.8961554 25.37448364 428.5124054 25.50198364 C430.6999054 26.12698364 430.6999054 26.12698364 433.6999054 28.12698364 C433.6999054 28.78698364 433.6999054 29.44698364 433.6999054 30.12698364 C434.6899054 30.45698364 435.6799054 30.78698364 436.6999054 31.12698364 C436.6999054 31.78698364 436.6999054 32.44698364 436.6999054 33.12698364 C437.3599054 33.12698364 438.0199054 33.12698364 438.6999054 33.12698364 C438.6999054 33.78698364 438.6999054 34.44698364 438.6999054 35.12698364 C439.6899054 35.45698364 440.6799054 35.78698364 441.6999054 36.12698364 C446.6999054 41.59209992 446.6999054 41.59209992 446.6999054 44.12698364 C447.3599054 44.12698364 448.0199054 44.12698364 448.6999054 44.12698364 C450.43786415 46.47009785 452.05202003 48.80870577 453.6374054 51.25198364 C454.08019836 51.91713989 454.52299133 52.58229614 454.97920227 53.26760864 C461.6999054 63.48387867 461.6999054 63.48387867 461.6999054 68.12698364 C462.3599054 68.12698364 463.0199054 68.12698364 463.6999054 68.12698364 C465.75168254 73.40298202 467.50495125 78.67701072 469.0514679 84.12307739 C469.524252 86.10301853 469.524252 86.10301853 470.6999054 87.12698364 C472.69365004 97.69178387 472.98716356 108.20614844 472.95387268 118.92170715 C472.95618276 120.56364782 472.95936292 122.20558744 472.96332717 123.84752494 C472.97160847 128.31692081 472.96758056 132.78623031 472.96135473 137.25562632 C472.95680382 142.09204392 472.96382695 146.92844734 472.96931458 151.76486206 C472.97818158 161.22178068 472.97629878 170.67866746 472.97048929 180.1355873 C472.96596298 187.82343976 472.96536408 195.51128332 472.96753693 203.19913673 C472.96784339 204.29545812 472.96814986 205.39177951 472.96846561 206.52132276 C472.96910509 208.74879998 472.96975352 210.97627719 472.97041079 213.2037544 C472.97610599 234.06206043 472.96956851 254.92034885 472.95881006 275.77865199 C472.94987153 293.66210533 472.95143066 311.54553272 472.96064758 329.4289856 C472.97135806 350.21995925 472.97556069 371.0109175 472.96942306 391.80189353 C472.96878598 394.02002163 472.96815724 396.23814974 472.96753693 398.45627785 C472.96722838 399.54751626 472.96691982 400.63875468 472.96660192 401.76306092 C472.9648776 409.4400179 472.96778434 417.11696506 472.97249603 424.79392052 C472.97811334 434.1516502 472.97657038 443.50934633 472.96593454 452.86707219 C472.96068987 457.63818462 472.95860059 462.40924119 472.96523285 467.18035316 C472.97121914 471.55297093 472.96787322 475.92548137 472.95727775 480.29808948 C472.95505509 481.87455914 472.95615431 483.45103798 472.96102932 485.02750167 C472.98636765 493.90667492 472.52427265 502.4091401 470.6999054 511.12698364 C470.0399054 511.12698364 469.3799054 511.12698364 468.6999054 511.12698364 C468.73986633 511.84756958 468.77982727 512.56815552 468.82099915 513.31057739 C468.68894121 516.38198936 467.98164584 518.38219337 466.7624054 521.18948364 C465.48672345 524.15693018 464.39289671 526.9684022 463.6999054 530.12698364 C463.0399054 530.12698364 462.3799054 530.12698364 461.6999054 530.12698364 C461.3905304 531.07573364 461.0811554 532.02448364 460.7624054 533.00198364 C459.6999054 536.12698364 459.6999054 536.12698364 458.6999054 538.12698364 C458.0399054 538.12698364 457.3799054 538.12698364 456.6999054 538.12698364 C456.5142804 539.27167114 456.5142804 539.27167114 456.3249054 540.43948364 C455.6999054 543.12698364 455.6999054 543.12698364 453.6999054 546.12698364 C453.0399054 546.12698364 452.3799054 546.12698364 451.6999054 546.12698364 C451.47560852 546.83081177 451.25131165 547.53463989 451.0202179 548.25979614 C449.41757946 551.74008198 447.18026926 554.25398073 444.5749054 557.00198364 C444.08135559 557.52937134 443.58780579 558.05675903 443.07929993 558.60012817 C433.22911389 569.00660515 422.59285533 575.93239699 409.6999054 582.12698364 C409.00510071 582.51370239 408.31029602 582.90042114 407.59443665 583.29885864 C405.6999054 584.12698364 405.6999054 584.12698364 401.6999054 584.12698364 C401.6999054 584.78698364 401.6999054 585.44698364 401.6999054 586.12698364 C398.3887097 587.08986178 395.07572235 588.04643281 391.7624054 589.00198364 C390.83621399 589.27139771 389.91002258 589.54081177 388.95576477 589.81838989 C373.85795247 594.16232185 359.64184723 595.27938298 343.94256592 595.25396729 C342.37674917 595.25512159 340.81093269 595.25671119 339.24511677 595.25869453 C334.97226181 595.26284525 330.69942936 595.26081652 326.42657435 595.25770831 C321.80689828 595.25543702 317.18722597 595.2589424 312.56755066 595.26168823 C303.52966934 595.26612633 294.49179634 595.26517821 285.45391469 595.26227559 C278.10684965 595.260014 270.75978693 595.25971232 263.41272163 595.26079941 C262.36566155 595.26095264 261.31860148 595.26110587 260.2398123 595.26126375 C258.11251075 595.26158349 255.98520921 595.2619077 253.85790766 595.26223634 C233.92768402 595.26508536 213.99746498 595.26181311 194.06724209 595.25643598 C176.97710217 595.25196781 159.88696903 595.2527451 142.79682922 595.25735474 C122.93465995 595.26270958 103.07249472 595.26481141 83.21032482 595.26174247 C81.09130768 595.26142393 78.97229054 595.26110956 76.85327339 595.26079941 C75.81076329 595.26064513 74.76825318 595.26049086 73.69415186 595.26033191 C66.3579028 595.25946953 59.0216563 595.2609236 51.68540764 595.26327896 C42.74223894 595.26608722 33.79907901 595.265317 24.85591131 595.25999822 C20.29558521 595.25737518 15.73527372 595.25633246 11.17494774 595.25964737 C6.99596899 595.26263908 2.81701832 595.26096982 -1.3619579 595.25566982 C-2.86918709 595.25455788 -4.37641868 595.25510949 -5.88364632 595.25754561 C-23.05633083 595.28316059 -23.05633083 595.28316059 -30.3000946 594.12698364 C-30.6300946 593.79698364 -30.9600946 593.46698364 -31.3000946 593.12698364 C-33.48412567 592.84830007 -35.67272862 592.60533255 -37.8625946 592.37698364 C-52.54910266 590.55924177 -64.81384074 585.28073517 -77.63407898 578.0552063 C-79.49445224 577.01869704 -81.38168797 576.05157653 -83.3000946 575.12698364 C-83.3000946 574.46698364 -83.3000946 573.80698364 -83.3000946 573.12698364 C-84.0838446 572.81760864 -84.8675946 572.50823364 -85.6750946 572.18948364 C-88.3000946 571.12698364 -88.3000946 571.12698364 -90.3000946 570.12698364 C-90.3000946 569.46698364 -90.3000946 568.80698364 -90.3000946 568.12698364 C-90.8775946 567.83823364 -91.4550946 567.54948364 -92.0500946 567.25198364 C-94.13342794 566.21031698 -96.21676127 565.16865031 -98.3000946 564.12698364 C-98.3000946 563.46698364 -98.3000946 562.80698364 -98.3000946 562.12698364 C-98.9600946 562.12698364 -99.6200946 562.12698364 -100.3000946 562.12698364 C-100.3000946 561.46698364 -100.3000946 560.80698364 -100.3000946 560.12698364 C-100.9394696 559.87948364 -101.5788446 559.63198364 -102.2375946 559.37698364 C-104.84439561 557.79710425 -104.59204538 556.95918053 -105.3000946 554.12698364 C-107.18325619 553.01861942 -107.18325619 553.01861942 -109.3000946 552.12698364 C-111.0500946 550.68948364 -111.0500946 550.68948364 -112.3000946 549.12698364 C-112.3000946 548.13698364 -112.3000946 547.14698364 -112.3000946 546.12698364 C-113.2900946 545.79698364 -114.2800946 545.46698364 -115.3000946 545.12698364 C-116.75712585 542.97463989 -116.75712585 542.97463989 -118.3000946 540.12698364 C-118.90208679 539.07381958 -119.50407898 538.02065552 -120.12431335 536.93557739 C-120.73919617 535.82311646 -121.35407898 534.71065552 -121.9875946 533.56448364 C-122.61021179 532.44944458 -123.23282898 531.33440552 -123.87431335 530.18557739 C-125.3000946 527.12698364 -125.3000946 527.12698364 -125.3000946 523.12698364 C-125.9600946 523.12698364 -126.6200946 523.12698364 -127.3000946 523.12698364 C-133.19694591 505.97522833 -136.54080471 490.0836604 -136.91700745 471.91351318 C-136.95471639 470.36386318 -136.99271784 468.81422027 -137.0309943 467.26458418 C-137.37966886 452.41619633 -137.44437136 437.5674884 -137.43081927 422.71557832 C-137.42849193 418.91336043 -137.43207984 415.11114646 -137.43479919 411.30892944 C-137.43917861 403.9185181 -137.43831641 396.52811707 -137.43538655 389.13770537 C-137.43310282 383.12187908 -137.43283264 377.10605563 -137.43391037 371.09022903 C-137.4340636 370.2251751 -137.43421684 369.36012117 -137.43437471 368.46885348 C-137.43469452 366.71015846 -137.43501873 364.95146343 -137.4353473 363.19276841 C-137.43817868 346.81725588 -137.43495131 330.44174901 -137.42954694 314.0662374 C-137.42507304 300.07753151 -137.42586422 286.08883392 -137.4304657 272.10012817 C-137.43583938 255.7568001 -137.43791252 239.41347694 -137.43485343 223.07014811 C-137.43453496 221.32195894 -137.43422059 219.57376977 -137.43391037 217.8255806 C-137.43367896 216.53615589 -137.43367896 216.53615589 -137.43344287 215.2206822 C-137.43258666 209.22124108 -137.43402089 203.22180314 -137.43638992 197.22236252 C-137.439219 189.89887177 -137.43838468 182.5753917 -137.43310918 175.25190215 C-137.43051479 171.53016609 -137.42939303 167.80844774 -137.43275833 164.08671188 C-137.48135063 105.29275028 -137.48135063 105.29275028 -130.3000946 83.12698364 C-129.96364929 82.07510864 -129.96364929 82.07510864 -129.6204071 81.00198364 C-127.99647063 76.35070881 -125.86547289 71.90741201 -123.8000946 67.43948364 C-123.5032074 66.79696655 -123.20632019 66.15444946 -122.9004364 65.49246216 C-121.22001774 61.91430124 -119.54454497 58.38767125 -117.3000946 55.12698364 C-116.6400946 55.12698364 -115.9800946 55.12698364 -115.3000946 55.12698364 C-115.15894226 54.29940552 -115.15894226 54.29940552 -115.01493835 53.45510864 C-114.1084802 50.50292799 -112.63665942 48.39977021 -110.8625946 45.87698364 C-110.24513367 44.98495239 -109.62767273 44.09292114 -108.99150085 43.17385864 C-108.43333679 42.49838989 -107.87517273 41.82292114 -107.3000946 41.12698364 C-106.6400946 41.12698364 -105.9800946 41.12698364 -105.3000946 41.12698364 C-104.9700946 40.13698364 -104.6400946 39.14698364 -104.3000946 38.12698364 C-103.6400946 38.12698364 -102.9800946 38.12698364 -102.3000946 38.12698364 C-102.3000946 37.46698364 -102.3000946 36.80698364 -102.3000946 36.12698364 C-101.6400946 36.12698364 -100.9800946 36.12698364 -100.3000946 36.12698364 C-99.9700946 35.13698364 -99.6400946 34.14698364 -99.3000946 33.12698364 C-98.6400946 33.12698364 -97.9800946 33.12698364 -97.3000946 33.12698364 C-97.3000946 32.46698364 -97.3000946 31.80698364 -97.3000946 31.12698364 C-92.82950637 27.12698364 -92.82950637 27.12698364 -90.3000946 27.12698364 C-90.3000946 26.46698364 -90.3000946 25.80698364 -90.3000946 25.12698364 C-87.13016832 22.67615903 -83.64500318 20.66779432 -80.2375946 18.56448364 C-79.29464539 17.96184692 -78.35169617 17.35921021 -77.38017273 16.73831177 C-72.29361886 13.58004034 -68.33683858 11.33630209 -62.3000946 11.12698364 C-62.3000946 10.46698364 -62.3000946 9.80698364 -62.3000946 9.12698364 C-54.09572234 5.9042767 -46.54912689 3.54785605 -37.74931335 2.48635864 C-35.35862328 2.38449921 -35.35862328 2.38449921 -34.3000946 1.12698364 C-31.61289427 0.88486206 -28.94959836 0.70496876 -26.25635052 0.57242012 C-25.44297147 0.53028726 -24.62959242 0.48815439 -23.79156552 0.44474477 C-15.86005899 0.06038957 -7.93954761 -0.01318757 0 0 Z " fill="#FEF7DC" transform="translate(137.3000946044922,-0.126983642578125)"/>
<path d="M0 0 C1.01748322 0.00088623 2.03496643 0.00177246 3.08328247 0.00268555 C23.44069431 0.02336771 43.77914382 0.4660249 64.125 1.125 C67.64909629 9.49784405 70.52849945 18.06761073 73.375 26.6875 C73.89457729 28.25386359 74.41427505 29.82018723 74.93408203 31.38647461 C81.7468809 51.943837 88.44595774 72.53884257 95.15045166 93.13171387 C96.08758154 96.01007071 97.02494639 98.88835091 97.96240234 101.76660156 C99.41866636 106.23781662 100.87463393 110.70912813 102.33047485 115.18048096 C103.18657342 117.80965437 104.04286193 120.43876588 104.89916992 123.06787109 C107.59601469 131.34916989 110.29004797 139.63135567 112.97579956 147.91625977 C114.58605741 152.88231544 116.1988304 157.84755202 117.8125 162.8125 C118.12519836 163.77510742 118.43789673 164.73771484 118.7600708 165.72949219 C123.34076099 179.81713458 128.04730165 193.85544499 132.97729492 207.82495117 C133.39599854 209.02095947 133.81470215 210.21696777 134.24609375 211.44921875 C134.6114624 212.48135498 134.97683105 213.51349121 135.35327148 214.5769043 C136.125 217.125 136.125 217.125 136.125 220.125 C136.785 220.125 137.445 220.125 138.125 220.125 C138.22903137 219.45759293 138.33306274 218.79018585 138.44024658 218.10255432 C139.29070939 214.40443592 140.65498619 210.98811703 142.08105469 207.48413086 C142.53660107 206.34978072 142.53660107 206.34978072 143.0013504 205.19251442 C144.01248026 202.6774747 145.0297013 200.16494453 146.046875 197.65234375 C146.76805678 195.86173532 147.4888121 194.07095508 148.20916748 192.28001404 C149.73357816 188.49169752 151.26033697 184.70433945 152.78881836 180.91766357 C155.06211105 175.28398555 157.32635712 169.646708 159.58789062 164.00830078 C164.17798585 152.56577732 168.77525541 141.12614766 173.375 129.6875 C173.7759853 128.69026665 174.1769706 127.69303329 174.59010696 126.66558075 C184.37075037 102.34272215 194.15426326 78.02123055 204.0625 53.75 C204.45111206 52.79723175 204.83972412 51.8444635 205.2401123 50.86282349 C207.51986333 45.27718634 209.81480211 39.69810663 212.125 34.125 C212.40941956 33.43468689 212.69383911 32.74437378 212.98687744 32.03314209 C213.78833841 30.09231224 214.59777898 28.15503156 215.41015625 26.21875 C215.85367432 25.15591797 216.29719238 24.09308594 216.75415039 22.99804688 C219.848377 16.51312102 224.3811282 10.11713151 231.125 7.125 C234.88234437 6.49184153 238.61343496 6.45210074 242.41796875 6.40234375 C243.5186116 6.37072647 244.61925446 6.33910919 245.75325012 6.30653381 C249.272808 6.20718274 252.79224932 6.1327168 256.3125 6.0625 C276.22662005 5.71401442 276.22662005 5.71401442 295.94316101 3.14427185 C302.04522134 1.98776597 308.28908447 1.02535928 314.1875 3.3125 C316.125 5.125 316.125 5.125 316.44946289 7.52685547 C316.04984563 10.72680048 315.29407359 11.4470162 312.87109375 13.5078125 C312.18442627 14.11173828 311.49775879 14.71566406 310.7902832 15.33789062 C309.68753052 16.28438477 309.68753052 16.28438477 308.5625 17.25 C290.99551432 33.08697649 286.52677861 52.05513799 285.21783996 75.08414602 C284.91090005 81.83145132 284.97745034 88.59162277 284.97973633 95.34423828 C284.9767367 97.13336252 284.97333234 98.92248611 284.96955872 100.71160889 C284.96079067 105.53482361 284.9583835 110.35802054 284.95774293 115.18124247 C284.95702768 118.21044882 284.95488432 121.23965079 284.95224571 124.26885605 C284.94301205 134.88285352 284.93890784 145.49683849 284.93969727 156.11083984 C284.94029568 165.92741739 284.92978525 175.74393956 284.9139536 185.56050313 C284.90076631 194.04693037 284.89551809 202.5333398 284.89615268 211.01977718 C284.89640465 216.06188145 284.8937241 221.10393657 284.88297462 226.14603043 C284.81033254 252.61611036 284.81033254 252.61611036 285.8894043 279.05810547 C285.95022344 280.12885881 286.01104258 281.19961216 286.07370472 282.30281258 C286.889423 293.00595859 289.51402112 303.99594569 297.671875 311.453125 C301.61817205 314.68841544 306.02076555 317.02642883 310.5 319.4375 C311.33144531 319.89189453 312.16289062 320.34628906 313.01953125 320.81445312 C315.05156025 321.92389424 317.0866598 323.02721094 319.125 324.125 C319.3125 327.5 319.3125 327.5 319.125 331.125 C313.14933053 335.10877965 304.59506088 333.19358527 297.67382812 332.62158203 C289.99629629 332.05938319 282.35083189 331.97922644 274.65625 331.9921875 C273.20438623 331.99151041 271.75252257 331.99053705 270.30065918 331.98928833 C267.27529814 331.98782662 264.24996691 331.98991363 261.22460938 331.99462891 C257.41725767 332.00028499 253.60997671 331.99699864 249.80262756 331.99114609 C246.08716145 331.98642739 242.37171574 331.98776537 238.65625 331.9921875 C237.93543243 331.99299065 237.21461487 331.99379379 236.47195435 331.99462128 C226.41989388 332.01481284 216.39697846 332.23948038 206.36633301 332.9513855 C204.28922579 333.08262331 202.20622288 333.1145564 200.125 333.125 C198.125 331.125 198.125 331.125 198 327.5 C198.061875 325.829375 198.061875 325.829375 198.125 324.125 C198.62837891 323.86920166 199.13175781 323.61340332 199.65039062 323.34985352 C216.23799426 314.95000073 216.23799426 314.95000073 226.5 299.9375 C230.32415149 287.30467845 230.41666234 274.56824811 230.38378906 261.50683594 C230.38650564 259.67505759 230.39007029 257.84328035 230.39440918 256.01150513 C230.40346389 251.07270175 230.40001561 246.13398273 230.39365101 241.19517803 C230.38854574 235.98902364 230.39329578 230.78287591 230.39642334 225.57672119 C230.40005377 216.82457197 230.39529223 208.07245657 230.38574219 199.3203125 C230.37490034 189.26965911 230.3783558 179.21908717 230.389395 169.16843581 C230.39854342 160.48500946 230.39971543 151.80160728 230.39451766 143.11817765 C230.3914338 137.95653598 230.39088703 132.79493223 230.39759064 127.63329315 C230.42154569 106.37671742 230.36513223 85.28861146 228.125 64.125 C227.72003296 65.12354004 227.31506592 66.12208008 226.89782715 67.15087891 C225.54752471 70.48001564 224.19663469 73.80891297 222.84545898 77.13769531 C222.24890486 78.60766626 221.65254473 80.07771596 221.05639648 81.54785156 C216.30448285 93.26577485 211.48131659 104.95028194 206.53881836 116.58935547 C190.67938421 153.9441962 175.29740808 191.49649666 160.04492188 229.1026001 C154.2883997 243.2954505 148.47946711 257.46512159 142.58789062 271.60253906 C141.09510594 275.19698122 139.61742655 278.79740304 138.140625 282.3984375 C137.17756418 284.72415751 136.21404119 287.0496862 135.25 289.375 C134.82187012 290.42800293 134.39374023 291.48100586 133.95263672 292.56591797 C130.9810436 299.68504726 127.63986291 306.61013709 122.125 312.125 C118.76428296 312.5633544 116.89842491 312.70021524 114.13110352 310.64208984 C111.3819424 307.19267387 110.25901564 303.63905593 108.90234375 299.4765625 C108.45845558 298.16167343 108.45845558 298.16167343 108.00559998 296.82022095 C107.03279226 293.92585617 106.07817178 291.02588533 105.125 288.125 C104.46156275 286.12972897 103.79765635 284.13461388 103.13330078 282.13964844 C100.96314537 275.6001088 98.82372867 269.05068648 96.6875 262.5 C96.30026764 261.31468689 95.91303528 260.12937378 95.5140686 258.90814209 C84.63971946 225.61968045 74.00802603 192.25432296 63.43658447 158.86865234 C60.04377052 148.15477438 56.6367713 137.44585359 53.1875 126.75 C52.80368164 125.55890625 52.41986328 124.3678125 52.02441406 123.140625 C49.82823046 116.34299894 47.61033794 109.55290022 45.3745575 102.76818848 C44.06980135 98.80713515 42.76923714 94.84470982 41.46871948 90.88226318 C40.82651977 88.93007154 40.18211462 86.97860393 39.53543091 85.02789307 C38.63034353 82.29763857 37.73245936 79.5651082 36.8359375 76.83203125 C36.56147293 76.01059128 36.28700836 75.18915131 36.00422668 74.34281921 C35.75581528 73.58104874 35.50740387 72.81927826 35.25146484 72.03442383 C35.0329184 71.37291824 34.81437195 70.71141266 34.58920288 70.02986145 C34.125 68.125 34.125 68.125 34.125 64.125 C33.465 64.125 32.805 64.125 32.125 64.125 C32.07991302 64.82257416 32.03482605 65.52014832 31.9883728 66.23886108 C31.38698068 74.47623614 30.18118928 82.5270318 28.7890625 90.6640625 C28.5510999 92.0803959 28.313747 93.49683184 28.07695007 94.9133606 C27.57013389 97.94239434 27.06111369 100.9710441 26.55020142 103.99938965 C25.17069001 112.18197916 23.80817173 120.36736723 22.45703125 128.5546875 C22.31761045 129.3995018 22.17818966 130.2443161 22.03454399 131.11473083 C19.96868243 143.66624591 18.02970516 156.23238392 16.19921875 168.8203125 C16.0253577 170.01584181 16.0253577 170.01584181 15.84798431 171.23552322 C15.27042208 175.21179672 14.694768 179.18834459 14.11968994 183.16497803 C9.99458716 211.66888377 5.59417554 240.03837568 -0.875 268.125 C-1.03164124 268.80598755 -1.18828247 269.4869751 -1.34967041 270.18859863 C-7.04053446 294.71224006 -15.3721454 317.7445468 -31.875 337.125 C-32.48859375 337.9396875 -33.1021875 338.754375 -33.734375 339.59375 C-43.28839411 350.89120325 -59.18115896 360.01346053 -73.93261719 361.30517578 C-86.40598401 362.06138381 -97.08874566 360.93422742 -107.09375 352.75390625 C-113.38381606 347.00180637 -117.31512778 341.64077817 -118.19140625 333.0078125 C-118.48219162 324.88458238 -117.46423463 319.20930147 -112.0625 313.0625 C-108.56629273 311.56412546 -106.5163325 312.09328912 -102.875 313.125 C-100.81154695 314.48574168 -98.93814797 315.94583428 -97.0625 317.5546875 C-89.13197671 323.24767029 -80.21808484 323.28082186 -70.875 322.125 C-58.77513314 318.83802829 -50.09344845 308.25970603 -43.95703125 297.875 C-27.30210285 268.38808516 -21.68907928 233.06319533 -15.875 200.125 C-15.62218262 198.70888428 -15.62218262 198.70888428 -15.36425781 197.26416016 C-12.55842784 181.45077561 -10.32635011 165.55562056 -8.08618164 149.65454102 C-6.76073948 140.25559692 -5.38373074 130.87156977 -3.875 121.5 C-1.05829002 103.81799012 0.93858707 86.01097903 3.11758423 68.24195862 C3.93426964 61.60524042 4.80043062 54.97695391 5.69189453 48.34985352 C6.3365877 43.54954231 6.95758979 38.75048663 7.5 33.9375 C7.61988281 33.03708984 7.73976563 32.13667969 7.86328125 31.20898438 C8.49189215 26.15988957 8.49189215 26.15988957 6.5390625 21.63671875 C0.61981454 17.93000522 -4.96101739 17.77003424 -11.75 17.8125 C-12.67675537 17.81741455 -13.60351074 17.8223291 -14.55834961 17.82739258 C-33.55034341 18.14618734 -50.33546722 23.31847673 -64.5625 36.3125 C-77.30019295 49.71267344 -79.37034129 65.71333276 -79.15625 83.28125 C-78.79356465 94.56801823 -75.74838293 105.54528621 -67.375 113.5 C-61.99662715 116.99594235 -57.23637116 118.02619425 -50.875 117.125 C-48.68435951 116.27265573 -46.72654365 115.28345006 -44.69921875 114.09765625 C-42.74347276 113.05487091 -41.06117735 112.48109899 -38.875 112.125 C-38.215 112.455 -37.555 112.785 -36.875 113.125 C-36.32138003 116.2885427 -36.4290811 118.39301992 -38.1171875 121.1640625 C-43.15932354 127.36798103 -49.09778552 130.50855934 -56.875 132.125 C-69.94183428 133.19932863 -80.68042959 128.68339123 -90.6875 120.375 C-99.43582825 112.12568512 -106.2391441 98.58916696 -107.05200195 86.49047852 C-107.58815271 60.36007127 -107.58815271 60.36007127 -102.875 50.125 C-102.37742187 48.97257812 -101.87984375 47.82015625 -101.3671875 46.6328125 C-92.77628047 27.59655102 -77.8562431 14.98062246 -58.875 7.125 C-39.71846265 -0.01091635 -20.14987922 -0.05034983 0 0 Z " fill="#FDA671" transform="translate(192.875,110.875)"/>
</svg>
